<svg width="110" height="120" viewBox="0 0 110 120" fill="none" xmlns="http://www.w3.org/2000/svg">
<g clip-path="url(#clip0_35_4416)">
<path d="M88.9866 120.481C88.4958 117.145 87.6875 110.095 87.6875 106.633L101.979 93.9396C100.958 101.681 101.864 112.3 100.68 120.481H88.9866Z" fill="#FEEFEF" stroke="#55504D" stroke-width="0.485477" stroke-linecap="round"/>
<path d="M23.0971 120.481C23.588 117.145 24.3962 110.095 24.3962 106.633L10.1045 93.9396C11.1254 101.681 10.2196 112.3 11.4039 120.481H23.0971Z" fill="#FEEFEF" stroke="#55504D" stroke-width="0.485477" stroke-linecap="round"/>
<path d="M79.5211 76.5836C79.5211 76.5836 87.6878 71.4741 94.8336 78.6233C101.979 85.7725 105.042 103.295 105.042 103.295C101.443 109.782 94.2188 108.523 87.8674 112.382C85.4228 109.516 86.7905 107.334 85.7136 103.295C84.6367 99.2561 86.7906 120.481 86.7906 120.481H26.265C26.0593 118.939 25.7972 115.557 25.6716 112.076C25.5361 114.478 25.4167 116.397 25.4167 116.397C15.9741 110.729 7.77042 111.747 5 107.209C5 107.209 6.70469 82.7265 14.6365 81.0863C16.6899 80.6617 22.3545 79.6466 22.3545 79.6466L79.5211 76.5836Z" fill="black" stroke="#55504D" stroke-width="0.485477" stroke-linecap="round"/>
<path d="M39.7413 71.5194C40.8377 67.4417 41.0835 65.4344 38.7215 60.86L61.1623 53.1078L60.1422 60.86C59.5065 64.5001 59.7643 67.4492 62.1823 70.5503C66.0421 75.5006 81.563 75.5662 81.563 75.5662C81.563 75.5662 77.8408 76.6826 73.4025 83.1477C63.3925 97.7287 37.079 97.3482 26.4803 83.1477C23.2711 78.8479 22.3545 81.5876 22.3545 79.6495C21.3343 79.6495 37.656 79.274 39.7413 71.5194Z" fill="#FEEFEF" stroke="#55504D" stroke-width="0.485477" stroke-linecap="round"/>
<rect x="61.1467" y="30.6477" width="10.2084" height="18.3751" fill="#FEF0F0"/>
<path d="M30.5311 51.0789L30.5213 51.0631L26.438 41.8756L27.4588 36.7714L30.5213 16.3547H56.0422L62.1673 35.7506C63.2186 42.7146 63.1584 46.031 59.1048 56.1673C56.4811 59.5849 54.7604 61.4367 50.9381 64.334C49.1314 65.2164 46.8547 64.9715 44.813 64.334C37.2681 61.9781 35.6503 59.3608 30.5311 51.0789Z" fill="#FEF0F0" stroke="#55504D" stroke-width="0.485477"/>
<path d="M46.8545 34.7885C47.2276 33.1456 54.4429 32.4707 56.042 32.7486" stroke="#55504D" stroke-width="0.809128" stroke-linecap="round"/>
<g filter="url(#filter0_f_35_4416)">
<ellipse cx="57.1103" cy="44.689" rx="4.00372" ry="1.34107" transform="rotate(-6.58194 57.1103 44.689)" fill="#FFD5D5"/>
</g>
<g filter="url(#filter1_f_35_4416)">
<ellipse cx="34.6158" cy="48.4549" rx="4.00372" ry="1.02084" transform="rotate(-6.58194 34.6158 48.4549)" fill="#FFD5D5"/>
</g>
<g filter="url(#filter2_f_35_4416)">
<ellipse cx="47.2245" cy="55.6002" rx="4.243" ry="1.27929" transform="rotate(-6.58194 47.2245 55.6002)" fill="#FFDCDC"/>
</g>
<path d="M29.5005 37.7977C29.8736 36.1548 37.0889 35.4798 38.688 35.7577" stroke="#55504D" stroke-width="0.809128" stroke-linecap="round"/>
<path d="M26.4368 17.3791C26.0806 15.7148 34.9739 6.6805 38.6868 9.21239C43.8961 4.86386 44.851 6.213 53.9993 6.14988C63.1477 6.08677 75.3718 29.7563 73.3952 31.6708C74.6124 41.3735 75.4369 41.8815 71.3536 48.0042C67.2702 54.1269 63.7052 60.5329 60.1244 64.3376L59.104 57.1894L62.166 48.0042H64.2077C67.4157 45.1219 71.3536 37.7958 69.3119 34.7333C67.2702 31.6708 66.2494 33.7125 66.2494 33.7125L65.2285 37.7958L62.166 34.7333L56.041 24.5249L61.1452 34.7333C59.3606 34.9525 58.3207 34.9345 56.041 33.7125C53.5712 29.8853 51.8622 27.1771 48.8951 22.4833L53.9993 34.7333C53.1999 35.387 52.7559 35.2838 51.9577 34.7333C48.5092 29.9274 46.9702 26.7366 44.8118 20.4416C45.4848 26.6146 46.0873 30.0229 47.8743 35.7541C44.6029 36.3254 42.806 36.387 39.7076 35.7541C37.4277 30.5645 36.9863 26.4299 36.6451 18.3999C35.9471 25.3513 35.7733 29.3003 36.6451 36.775C35.7512 37.2552 35.3234 37.1583 34.6034 36.775C31.6096 27.6873 32.5853 23.0591 34.6034 18.3999C31.1596 24.7975 28.4594 27.753 29.4993 37.7958C29.0277 39.6452 27.3641 41.8248 27.4581 43.9185C27.5521 46.0122 32.5137 53.1221 31.5414 53.106C28.0001 51.4347 26.2102 50.4484 22.3534 45.9625C18.4966 41.4766 24.8169 16.0412 26.4368 17.3791Z" fill="#5B5B5B" stroke="#55504D" stroke-width="0.809128"/>
<path d="M52.7041 39.1311C52.6889 39.5343 52.658 39.8316 52.7574 40.1296C52.8051 40.2729 52.9341 40.3216 53.0261 40.3854C53.0698 40.4158 53.118 40.4071 53.1491 40.3755C53.2989 40.2235 53.3033 39.898 53.334 39.6425C53.3646 39.3869 53.2729 39.1324 53.1503 38.8663C53.0659 38.6832 52.935 38.5996 52.8127 38.5677C52.7369 38.5479 52.6294 38.5569 52.5518 38.5884C52.4741 38.62 52.4285 38.6832 52.3974 38.7473C52.2314 39.0893 52.3658 39.704 52.4656 39.9596C52.513 40.0809 52.5502 40.2151 52.6191 40.3318C52.688 40.4486 52.8567 40.4709 53.0332 40.4393C53.2495 40.4006 53.2416 39.9618 53.2496 39.6533C53.2268 39.5152 53.1807 39.3869 53.1194 39.2596C53.0885 39.1955 53.0581 39.1324 53.0268 39.0673" stroke="#4C4C4A" stroke-width="1.61826" stroke-linecap="round"/>
<path d="M37.0308 41.4742C37.0156 41.9086 36.9847 42.2289 37.084 42.5499C37.1318 42.7043 37.2608 42.7568 37.3527 42.8255C37.3965 42.8582 37.4447 42.8489 37.4758 42.8149C37.6256 42.6511 37.63 42.3004 37.6606 42.0251C37.6913 41.7498 37.5996 41.4755 37.477 41.1889C37.3926 40.9917 37.2617 40.9016 37.1393 40.8672C37.0635 40.8459 36.9561 40.8555 36.8784 40.8896C36.8008 40.9236 36.7551 40.9916 36.724 41.0607C36.5581 41.4291 36.6925 42.0914 36.7922 42.3667C36.8396 42.4975 36.8768 42.642 36.9457 42.7678C37.0146 42.8935 37.1833 42.9176 37.3599 42.8836C37.5762 42.8419 37.5682 42.3691 37.5763 42.0368C37.5535 41.888 37.5074 41.7498 37.4461 41.6127C37.4152 41.5436 37.3848 41.4755 37.3534 41.4054" stroke="#4C4C4A" stroke-width="1.61826" stroke-linecap="round"/>
<path d="M44.6304 45.9289C44.1935 47.0623 44.0009 46.7083 44.9874 47.9391" stroke="#55504D" stroke-width="0.485477" stroke-linecap="round"/>
<path d="M41.75 55.1478C46.791 56.1756 47.4532 55.9073 51.9584 54.127" stroke="#55504D" stroke-width="0.485477" stroke-linecap="round"/>
</g>
<defs>
<filter id="filter0_f_35_4416" x="49.8934" y="40.0431" width="14.4337" height="9.29191" filterUnits="userSpaceOnUse" color-interpolation-filters="sRGB">
<feFlood flood-opacity="0" result="BackgroundImageFix"/>
<feBlend mode="normal" in="SourceGraphic" in2="BackgroundImageFix" result="shape"/>
<feGaussianBlur stdDeviation="1.61826" result="effect1_foregroundBlur_35_4416"/>
</filter>
<filter id="filter1_f_35_4416" x="27.4002" y="44.105" width="14.4313" height="8.6998" filterUnits="userSpaceOnUse" color-interpolation-filters="sRGB">
<feFlood flood-opacity="0" result="BackgroundImageFix"/>
<feBlend mode="normal" in="SourceGraphic" in2="BackgroundImageFix" result="shape"/>
<feGaussianBlur stdDeviation="1.61826" result="effect1_foregroundBlur_35_4416"/>
</filter>
<filter id="filter2_f_35_4416" x="41.3886" y="52.6209" width="11.6718" height="5.95873" filterUnits="userSpaceOnUse" color-interpolation-filters="sRGB">
<feFlood flood-opacity="0" result="BackgroundImageFix"/>
<feBlend mode="normal" in="SourceGraphic" in2="BackgroundImageFix" result="shape"/>
<feGaussianBlur stdDeviation="0.809128" result="effect1_foregroundBlur_35_4416"/>
</filter>
<clipPath id="clip0_35_4416">
<rect width="109.54" height="119.61" fill="white"/>
</clipPath>
</defs>
</svg>
