<svg width="110" height="120" viewBox="0 0 110 120" fill="none" xmlns="http://www.w3.org/2000/svg">
<g clip-path="url(#clip0_35_4436)">
<path d="M101.047 81.4093C90.9421 78.3124 79.8269 76.2477 79.8269 76.2477H26.8405C26.8405 76.2477 9.20351 79.3447 5.16164 81.4093C1.11977 83.474 0 119.605 0 119.605H109.427C109.427 119.605 111.151 84.5063 101.047 81.4093Z" fill="#95AAC5" stroke="#55504D" stroke-width="0.491887" stroke-linecap="round"/>
<rect x="33.0349" y="70.0568" width="8.25863" height="8.25863" fill="#D9D9D9"/>
<rect x="60.6812" y="65.9251" width="11.2445" height="6.45021" transform="rotate(26.4247 60.6812 65.9251)" fill="#D9D9D9"/>
<path d="M40.2614 71.0852C41.3162 66.9559 40.2614 64.8912 39.2294 59.7296L61.9401 48.374L61.9402 60.7619C62.9725 65.9235 62.9725 64.8912 64.0049 69.0205C65.5967 75.3874 79.4897 75.2145 79.4897 75.2145C79.4897 75.2145 77.7876 82.7797 73.2958 89.6671C63.1653 105.2 40.6643 102.731 29.938 87.6024C26.6902 83.0218 27.8733 82.4408 27.8733 80.3761C26.8408 80.3761 38.151 79.3464 40.2614 71.0852Z" fill="#FEEFEF" stroke="#55504D" stroke-width="0.491887" stroke-linecap="round"/>
<path d="M66.3912 37.0195C65.5963 40.1204 64.8521 41.4951 63.2942 43.6006L61.4231 29.7932H66.0686C66.8475 32.3833 66.9046 33.9707 66.3912 37.0195Z" fill="#FEF0F0" stroke="#55504D" stroke-width="0.491887" stroke-linecap="round"/>
<path d="M30.9803 49.4243L30.9704 49.4083L26.8411 40.1174L27.8734 34.9557L30.9704 14.3092H56.7786L62.9726 33.9234C64.0357 40.9659 63.9748 44.3196 59.8756 54.57C57.2224 58.026 55.4823 59.8987 51.6169 62.8286C49.7899 63.721 47.4876 63.4733 45.423 62.8286C37.7931 60.4462 36.1571 57.7994 30.9803 49.4243Z" fill="#FEF0F0" stroke="#55504D" stroke-width="0.491887"/>
<path d="M57.8105 31.8611C56.7318 30.5423 50.9013 31.9878 49.5793 32.9605" stroke="#55504D" stroke-width="0.819812" stroke-linecap="round"/>
<path d="M28.9055 37.0795C29.2828 35.418 36.5794 34.7355 38.1965 35.0165" stroke="#55504D" stroke-width="0.819812" stroke-linecap="round"/>
<path d="M53.4028 37.3418C53.3874 37.7496 53.3562 38.0502 53.4566 38.3515C53.5049 38.4965 53.6354 38.5458 53.7284 38.6103C53.7726 38.6409 53.8214 38.6322 53.8528 38.6003C54.0043 38.4465 54.0087 38.1173 54.0397 37.8589C54.0707 37.6005 53.978 37.3431 53.854 37.074C53.7687 36.8889 53.6363 36.8043 53.5126 36.7721C53.4359 36.7521 53.3273 36.7611 53.2487 36.7931C53.1702 36.825 53.124 36.8889 53.0926 36.9537C52.9248 37.2995 53.0607 37.9212 53.1616 38.1796C53.2095 38.3023 53.2471 38.438 53.3168 38.5561C53.3864 38.6741 53.5571 38.6967 53.7356 38.6648C53.9543 38.6257 53.9463 38.1819 53.9544 37.8699C53.9314 37.7302 53.8848 37.6005 53.8228 37.4718C53.7915 37.407 53.7608 37.3431 53.7291 37.2773" stroke="#4C4C4A" stroke-width="1.63962" stroke-linecap="round"/>
<path d="M37.5532 39.7105C37.5378 40.1498 37.5066 40.4737 37.607 40.7983C37.6553 40.9545 37.7858 41.0076 37.8788 41.0771C37.923 41.1101 37.9718 41.1007 38.0032 41.0663C38.1547 40.9007 38.1591 40.546 38.1901 40.2676C38.2211 39.9892 38.1284 39.7119 38.0044 39.422C37.9191 39.2226 37.7867 39.1315 37.6629 39.0967C37.5863 39.0752 37.4777 39.0849 37.3991 39.1193C37.3206 39.1537 37.2744 39.2225 37.243 39.2924C37.0752 39.665 37.211 40.3347 37.312 40.6131C37.3599 40.7453 37.3975 40.8915 37.4672 41.0187C37.5368 41.1458 37.7075 41.1702 37.886 41.1358C38.1047 41.0936 38.0967 40.6155 38.1048 40.2794C38.0818 40.1289 38.0351 39.9892 37.9731 39.8506C37.9419 39.7807 37.9112 39.7119 37.8795 39.641" stroke="#4C4C4A" stroke-width="1.63962" stroke-linecap="round"/>
<path d="M45.2377 44.2146C44.796 45.3608 44.6012 45.0027 45.5988 46.2474" stroke="#55504D" stroke-width="0.491887" stroke-linecap="round"/>
<path d="M42.3257 53.538C47.4234 54.5774 48.0931 54.306 52.649 52.5057" stroke="#55504D" stroke-width="0.491887" stroke-linecap="round"/>
<path d="M41.9134 14.3503L39.2391 14.6989C38.1941 13.7649 32.4663 20.3438 33.262 23.0931C34.0576 25.8424 36.096 30.464 34.4934 34.6273C32.6023 36.4269 29.8808 37.158 27.8724 38.0531L27.8724 42.1825L26.3305 40.8586C23.0887 36.4556 20.9135 28.5101 20.9135 28.5101C19.9453 26.4995 22.1076 10.9204 32.0016 8.74761C33.8168 8.34898 37.6142 4.40751 39.6682 6.04606C43.9873 3.36363 46.8791 3.57233 53.7019 6.04801C56.8875 7.20392 61.7292 10.0252 62.7706 12.2433C64.8569 13.7803 64.0607 15.6212 65.8248 16.7722C71.9459 20.7663 67.1821 30.7742 66.5203 31.1653C64.617 30.2816 65.8809 34.3864 64.004 37.021C63.0779 34.8051 61.325 33.1948 60.399 30.9788C58.9404 32.382 59.3994 31.6523 56.8876 31.1645C54.3757 30.6768 52.6562 21.6532 52.6562 21.6532L53.7019 29.676C52.7586 30.174 52.2259 30.474 50.8647 30.8617C49.0864 33.0258 46.1909 32.5579 45.0276 34.0702C43.8644 35.5824 42.3773 34.0841 40.6791 34.093C35.407 29.6526 38.4625 23.7481 41.9134 14.3503Z" fill="#5B5B5B" stroke="#55504D" stroke-width="0.819812" stroke-linecap="round"/>
<path d="M44.3019 22.5683C42.3255 29.7946 45.0248 29.2799 46.4548 32.8916" stroke="#55504D" stroke-width="0.819812" stroke-linecap="round"/>
<path d="M46.4549 22.5683C45.0238 28.3493 45.4198 30.0022 46.4552 32.8916" stroke="#55504D" stroke-width="0.819812" stroke-linecap="round"/>
<path d="M51.6166 93.7992L49.552 87.6052L42.3257 99.9932L51.6166 110.316L59.8753 104.122L53.6813 88.6375V93.7992L51.6166 105.155V93.7992Z" fill="#95AAC5"/>
<path d="M24.7761 82.4413H28.9054C38.0277 82.4413 45.4227 89.8364 45.4227 98.9586H24.7761V82.4413Z" fill="#95AAC5"/>
<rect x="53.6816" y="86.5731" width="20.6466" height="14.4526" rx="1.63962" fill="#95AAC5"/>
<path d="M80.5209 75.217C76.3846 72.2564 68.2151 62.8291 62.7651 62.8291L65.2427 71.0877C65.2427 71.0877 67.8711 71.0914 68.3631 72.12C69.25 73.9745 67.3193 79.5417 66.464 81.411C64.732 85.1967 59.4724 85.2516 55.1084 86.5726C50.7445 87.8937 57.6251 94.752 59.2377 99.9929C59.2377 99.9929 59.8746 97.9283 60.907 95.8636C61.9393 93.7989 68.1333 95.8636 68.1333 95.8636C68.1333 95.8636 84.6573 78.1777 80.5209 75.217Z" fill="#95AAC5" stroke="#55504D" stroke-width="0.491887" stroke-linecap="round"/>
<path d="M49.5518 88.6376L51.6164 94.2684V101.025H52.6487L53.6811 94.2684V88.6376" stroke="#55504D" stroke-width="0.491887"/>
<path d="M24.7763 75.2161C28.9127 72.2554 35.0995 67.9898 40.2611 65.9251V71.0867C40.2611 71.0867 36.3355 74.1874 35.8436 75.2161C34.9566 77.0705 36.0206 78.5084 36.8759 80.3777C38.608 84.1634 43.8676 84.2183 48.2315 85.5393C52.5954 86.8604 45.7148 93.7187 44.1022 98.9596C44.1022 98.9596 44.1022 93.798 43.0699 91.7333C42.0375 89.6687 35.8436 91.7333 35.8436 91.7333C35.8436 91.7333 20.6399 78.1767 24.7763 75.2161Z" fill="#95AAC5" stroke="#55504D" stroke-width="0.491887" stroke-linecap="round"/>
</g>
<defs>
<clipPath id="clip0_35_4436">
<rect width="109.54" height="119.61" fill="white"/>
</clipPath>
</defs>
</svg>
