<svg width="24" height="24" viewBox="0 0 24 24" fill="none" xmlns="http://www.w3.org/2000/svg">
<path d="M12.9061 12.0294L8.37242 16.7333C8.13389 16.9823 8 17.3191 8 17.6701C8 18.0212 8.13389 18.358 8.37242 18.6069C8.49148 18.7315 8.63312 18.8303 8.78919 18.8978C8.94525 18.9653 9.11265 19 9.28171 19C9.45078 19 9.61818 18.9653 9.77424 18.8978C9.93031 18.8303 10.072 18.7315 10.191 18.6069L15.6212 12.9728C15.7412 12.8493 15.8365 12.7023 15.9015 12.5404C15.9665 12.3785 16 12.2048 16 12.0294C16 11.854 15.9665 11.6803 15.9015 11.5184C15.8365 11.3564 15.7412 11.2095 15.6212 11.0859L10.191 5.38538C10.0713 5.26222 9.92942 5.16479 9.77338 5.09866C9.61735 5.03253 9.45026 4.99901 9.28172 5.00002C9.11317 4.99901 8.94608 5.03253 8.79005 5.09866C8.63401 5.16479 8.49209 5.26222 8.37242 5.38538C8.13389 5.63434 8 5.97113 8 6.32218C8 6.67323 8.13389 7.01002 8.37242 7.25899L12.9061 12.0294Z" fill="white"/>
</svg>
