<svg width="24" height="24" viewBox="0 0 24 24" fill="none" xmlns="http://www.w3.org/2000/svg">
<path d="M11.0939 11.9706L15.6276 7.26667C15.8661 7.0177 16 6.68091 16 6.32986C16 5.97881 15.8661 5.64202 15.6276 5.39306C15.5085 5.26851 15.3669 5.16966 15.2108 5.10219C15.0547 5.03473 14.8874 5 14.7183 5C14.5492 5 14.3818 5.03473 14.2258 5.10219C14.0697 5.16966 13.928 5.26851 13.809 5.39306L8.37883 11.0272C8.25879 11.1507 8.16351 11.2977 8.09849 11.4596C8.03348 11.6215 8 11.7952 8 11.9706C8 12.146 8.03348 12.3197 8.09849 12.4816C8.16351 12.6436 8.25879 12.7905 8.37883 12.9141L13.809 18.6146C13.9287 18.7378 14.0706 18.8352 14.2266 18.9013C14.3827 18.9675 14.5497 19.001 14.7183 19C14.8868 19.001 15.0539 18.9675 15.21 18.9013C15.366 18.8352 15.5079 18.7378 15.6276 18.6146C15.8661 18.3657 16 18.0289 16 17.6778C16 17.3268 15.8661 16.99 15.6276 16.741L11.0939 11.9706Z" fill="white"/>
</svg>
