<svg width="100" height="100" viewBox="0 0 100 100" fill="none" xmlns="http://www.w3.org/2000/svg">
<path d="M49.928 49.6029C42.8069 32.1364 42.5682 21.269 50.0181 0.205125C50.0318 0.166367 50.0901 0.173112 50.0901 0.214224L50.0905 19.9954C50.0905 19.999 50.0899 20.0026 50.0889 20.006C46.0409 33.5403 47.5752 38.6872 49.9977 49.5817C50.0074 49.6254 49.9449 49.6444 49.928 49.6029Z" fill="url(#paint0_linear_1738_19235)"/>
<path d="M50.2062 49.5979C57.218 32.1357 57.4526 21.2685 50.1161 0.209103C50.1026 0.170186 50.044 0.176793 50.044 0.218004L50.0438 19.9962C50.0438 19.9997 50.0443 20.0033 50.0453 20.0067C54.0321 33.5388 52.522 38.6862 50.1365 49.5769C50.1269 49.6207 50.1896 49.6395 50.2062 49.5979Z" fill="url(#paint1_linear_1738_19235)"/>
<path d="M49.928 50.3971C42.8069 67.8636 42.5682 78.731 50.0181 99.7949C50.0318 99.8336 50.0901 99.8269 50.0901 99.7858L50.0905 80.0046C50.0905 80.001 50.0899 79.9974 50.0889 79.994C46.0409 66.4597 47.5752 61.3128 49.9977 50.4183C50.0074 50.3746 49.9449 50.3556 49.928 50.3971Z" fill="url(#paint2_linear_1738_19235)"/>
<path d="M50.2062 50.4021C57.218 67.8643 57.4526 78.7315 50.1161 99.7909C50.1026 99.8298 50.044 99.8232 50.044 99.782L50.0438 80.0038C50.0438 80.0003 50.0443 79.9967 50.0453 79.9933C54.0321 66.4612 52.522 61.3138 50.1365 50.4231C50.1269 50.3793 50.1896 50.3605 50.2062 50.4021Z" fill="url(#paint3_linear_1738_19235)"/>
<path d="M50.3966 49.9258C67.8632 42.8048 78.7307 42.566 99.7947 50.0159C99.8335 50.0296 99.8268 50.0879 99.7857 50.0879L80.0043 50.0883C80.0008 50.0883 79.9971 50.0877 79.9937 50.0867C66.4593 46.0387 61.3124 47.573 50.4178 49.9955C50.3741 50.0052 50.3551 49.9427 50.3966 49.9258Z" fill="url(#paint4_linear_1738_19235)"/>
<path d="M50.4011 50.2037C67.8634 57.2154 78.7307 57.45 99.7903 50.1136C99.8292 50.1 99.8226 50.0415 99.7814 50.0415L80.003 50.0412C79.9995 50.0412 79.9959 50.0418 79.9926 50.0428C66.4603 54.0295 61.3129 52.5194 50.4221 50.134C50.3783 50.1244 50.3595 50.187 50.4011 50.2037Z" fill="url(#paint5_linear_1738_19235)"/>
<path d="M49.6034 49.9258C32.1368 42.8048 21.2693 42.566 0.205251 50.0159C0.166492 50.0296 0.173237 50.0879 0.214349 50.0879L19.9957 50.0883C19.9992 50.0883 20.0029 50.0877 20.0063 50.0867C33.5407 46.0387 38.6876 47.573 49.5822 49.9955C49.6259 50.0052 49.6449 49.9427 49.6034 49.9258Z" fill="url(#paint6_linear_1738_19235)"/>
<path d="M49.5989 50.2037C32.1366 57.2154 21.2693 57.45 0.209717 50.1136C0.1708 50.1 0.177407 50.0415 0.218617 50.0415L19.997 50.0412C20.0005 50.0412 20.0041 50.0418 20.0074 50.0428C33.5397 54.0295 38.6871 52.5194 49.5779 50.134C49.6217 50.1244 49.6405 50.187 49.5989 50.2037Z" fill="url(#paint7_linear_1738_19235)"/>
<path d="M49.6508 49.8125C32.2647 42.4972 24.4114 34.9816 14.7847 14.8194C14.767 14.7823 14.813 14.7458 14.8421 14.7748L28.8299 28.762C28.8324 28.7645 28.8346 28.7675 28.8362 28.7706C35.5442 41.2032 40.2685 43.7576 49.6851 49.7483C49.7228 49.7723 49.6921 49.8299 49.6508 49.8125Z" fill="url(#paint8_linear_1738_19235)"/>
<path d="M49.8442 49.6119C42.4545 32.3063 34.9361 24.4562 14.8571 14.7525C14.8199 14.7345 14.7832 14.7806 14.8123 14.8098L28.7976 28.7952C28.8001 28.7977 28.803 28.7999 28.8061 28.8016C41.1939 35.5511 43.7658 40.2587 49.78 49.6464C49.8042 49.6841 49.8618 49.6531 49.8442 49.6119Z" fill="url(#paint9_linear_1738_19235)"/>
<path d="M50.2116 50.3729C57.527 67.7589 65.0427 75.6122 85.205 85.2387C85.2421 85.2564 85.2786 85.2104 85.2496 85.1813L71.2623 71.1937C71.2598 71.1912 71.2568 71.189 71.2537 71.1873C58.821 64.4794 56.2666 59.7552 50.2759 50.3387C50.2519 50.3009 50.1942 50.3316 50.2116 50.3729Z" fill="url(#paint10_linear_1738_19235)"/>
<path d="M50.4115 50.1792C67.7173 57.5688 75.5675 65.0871 85.2712 85.166C85.2891 85.2031 85.2431 85.2399 85.2139 85.2107L71.2283 71.2256C71.2259 71.2231 71.2237 71.2202 71.222 71.2171C64.4724 58.8294 59.7648 56.2575 50.377 50.2433C50.3393 50.2191 50.3703 50.1616 50.4115 50.1792Z" fill="url(#paint11_linear_1738_19235)"/>
<path d="M50.3492 49.8125C67.7353 42.4972 75.5886 34.9816 85.2153 14.8194C85.233 14.7823 85.187 14.7458 85.1579 14.7748L71.1701 28.762C71.1676 28.7645 71.1654 28.7675 71.1638 28.7706C64.4558 41.2032 59.7315 43.7576 50.3149 49.7483C50.2772 49.7723 50.3079 49.8299 50.3492 49.8125Z" fill="url(#paint12_linear_1738_19235)"/>
<path d="M50.1558 49.6119C57.5455 32.3063 65.0639 24.4562 85.1429 14.7525C85.1801 14.7345 85.2168 14.7806 85.1877 14.8098L71.2024 28.7952C71.1999 28.7977 71.197 28.7999 71.1939 28.8016C58.8061 35.5511 56.2342 40.2587 50.22 49.6464C50.1958 49.6841 50.1382 49.6531 50.1558 49.6119Z" fill="url(#paint13_linear_1738_19235)"/>
<path d="M49.7884 50.3729C42.473 67.7589 34.9573 75.6122 14.795 85.2387C14.7579 85.2564 14.7214 85.2104 14.7504 85.1813L28.7377 71.1937C28.7402 71.1912 28.7432 71.189 28.7463 71.1873C41.179 64.4794 43.7334 59.7552 49.7241 50.3387C49.7481 50.3009 49.8058 50.3316 49.7884 50.3729Z" fill="url(#paint14_linear_1738_19235)"/>
<path d="M49.5885 50.1792C32.2827 57.5688 24.4325 65.0871 14.7288 85.166C14.7109 85.2031 14.7569 85.2399 14.7861 85.2107L28.7717 71.2256C28.7741 71.2231 28.7763 71.2202 28.778 71.2171C35.5276 58.8294 40.2352 56.2575 49.623 50.2433C49.6607 50.2191 49.6297 50.1616 49.5885 50.1792Z" fill="url(#paint15_linear_1738_19235)"/>
<defs>
<linearGradient id="paint0_linear_1738_19235" x1="47.533" y1="0.00325228" x2="47.5169" y2="49.9973" gradientUnits="userSpaceOnUse">
<stop stop-color="#6DD4BD"/>
<stop offset="1" stop-color="#FEFDCA"/>
</linearGradient>
<linearGradient id="paint1_linear_1738_19235" x1="52.5628" y1="0.00399712" x2="52.5789" y2="49.9981" gradientUnits="userSpaceOnUse">
<stop stop-color="#6DD4BD"/>
<stop offset="1" stop-color="#FEFDCA"/>
</linearGradient>
<linearGradient id="paint2_linear_1738_19235" x1="47.533" y1="99.9967" x2="47.5169" y2="50.0027" gradientUnits="userSpaceOnUse">
<stop stop-color="#6DD4BD"/>
<stop offset="1" stop-color="#FEFDCA"/>
</linearGradient>
<linearGradient id="paint3_linear_1738_19235" x1="52.5628" y1="99.996" x2="52.5789" y2="50.0019" gradientUnits="userSpaceOnUse">
<stop stop-color="#6DD4BD"/>
<stop offset="1" stop-color="#FEFDCA"/>
</linearGradient>
<linearGradient id="paint4_linear_1738_19235" x1="99.9966" y1="47.5308" x2="50.0022" y2="47.5147" gradientUnits="userSpaceOnUse">
<stop stop-color="#6DD4BD"/>
<stop offset="1" stop-color="#FEFDCA"/>
</linearGradient>
<linearGradient id="paint5_linear_1738_19235" x1="99.9954" y1="52.5602" x2="50.0009" y2="52.5764" gradientUnits="userSpaceOnUse">
<stop stop-color="#6DD4BD"/>
<stop offset="1" stop-color="#FEFDCA"/>
</linearGradient>
<linearGradient id="paint6_linear_1738_19235" x1="0.00337436" y1="47.5308" x2="49.9978" y2="47.5147" gradientUnits="userSpaceOnUse">
<stop stop-color="#6DD4BD"/>
<stop offset="1" stop-color="#FEFDCA"/>
</linearGradient>
<linearGradient id="paint7_linear_1738_19235" x1="0.00460748" y1="52.5602" x2="49.9991" y2="52.5764" gradientUnits="userSpaceOnUse">
<stop stop-color="#6DD4BD"/>
<stop offset="1" stop-color="#FEFDCA"/>
</linearGradient>
<linearGradient id="paint8_linear_1738_19235" x1="12.8848" y1="16.4338" x2="48.2245" y2="51.7966" gradientUnits="userSpaceOnUse">
<stop stop-color="#6DD4BD"/>
<stop offset="1" stop-color="#FEFDCA"/>
</linearGradient>
<linearGradient id="paint9_linear_1738_19235" x1="16.4421" y1="12.8774" x2="51.8046" y2="48.2174" gradientUnits="userSpaceOnUse">
<stop stop-color="#6DD4BD"/>
<stop offset="1" stop-color="#FEFDCA"/>
</linearGradient>
<linearGradient id="paint10_linear_1738_19235" x1="83.5906" y1="87.1386" x2="48.2281" y2="51.7986" gradientUnits="userSpaceOnUse">
<stop stop-color="#6DD4BD"/>
<stop offset="1" stop-color="#FEFDCA"/>
</linearGradient>
<linearGradient id="paint11_linear_1738_19235" x1="87.1463" y1="83.581" x2="51.8066" y2="48.2182" gradientUnits="userSpaceOnUse">
<stop stop-color="#6DD4BD"/>
<stop offset="1" stop-color="#FEFDCA"/>
</linearGradient>
<linearGradient id="paint12_linear_1738_19235" x1="87.1152" y1="16.4338" x2="51.7755" y2="51.7966" gradientUnits="userSpaceOnUse">
<stop stop-color="#6DD4BD"/>
<stop offset="1" stop-color="#FEFDCA"/>
</linearGradient>
<linearGradient id="paint13_linear_1738_19235" x1="83.5579" y1="12.8774" x2="48.1954" y2="48.2174" gradientUnits="userSpaceOnUse">
<stop stop-color="#6DD4BD"/>
<stop offset="1" stop-color="#FEFDCA"/>
</linearGradient>
<linearGradient id="paint14_linear_1738_19235" x1="16.4094" y1="87.1386" x2="51.7719" y2="51.7986" gradientUnits="userSpaceOnUse">
<stop stop-color="#6DD4BD"/>
<stop offset="1" stop-color="#FEFDCA"/>
</linearGradient>
<linearGradient id="paint15_linear_1738_19235" x1="12.8537" y1="83.581" x2="48.1934" y2="48.2182" gradientUnits="userSpaceOnUse">
<stop stop-color="#6DD4BD"/>
<stop offset="1" stop-color="#FEFDCA"/>
</linearGradient>
</defs>
</svg>
